<svg xmlns="http://www.w3.org/2000/svg" version="1.0" width="325.000000pt" height="300.000000pt" viewBox="0 0 325.000000 300.000000" preserveAspectRatio="xMidYMid meet">

<g transform="translate(0.000000,300.000000) scale(0.100000,-0.100000)" fill="#FF3D7F" stroke="none">
<path d="M1603 2821 c-104 -30 -173 -71 -254 -151 -87 -87 -140 -182 -163 -293 -13 -59 -21 -76 -63 -120 -70 -75 -118 -145 -155 -223 -27 -58 -32 -81 -33 -145 0 -99 27 -144 112 -186 52 -25 69 -28 178 -31 88 -2 144 2 209 16 l89 19 76 -24 c184 -59 406 -10 559 122 68 59 139 168 167 257 14 44 25 89 25 101 0 14 18 41 46 67 71 70 161 210 185 291 73 240 -102 352 -460 294 -109 -17 -111 -17 -189 4 -99 26 -240 27 -329 2z m824 -120 c69 -32 81 -87 38 -179 -131 -282 -539 -580 -970 -707 -107 -32 -292 -45 -364 -25 -59 16 -91 49 -91 96 0 40 62 168 109 224 l28 34 18 -59 c20 -69 57 -146 79 -164 33 -27 215 17 393 96 165 72 248 121 388 229 95 72 245 228 245 253 0 23 -50 101 -102 157 -53 58 -45 64 87 64 77 0 110 -5 142 -19z" fill="#FF3D7F"/>
<path d="M795 1436 c-41 -19 -72 -54 -89 -103 -8 -23 -58 -186 -111 -363 l-96 -321 3 -189 3 -190 26 -26 c22 -21 37 -26 77 -27 60 -1 95 15 112 52 7 14 15 77 18 139 l5 112 177 0 178 0 3 -118 c5 -139 16 -165 80 -182 60 -17 118 4 142 50 16 31 18 55 14 215 l-4 180 -98 330 c-53 182 -107 348 -119 369 -37 69 -63 81 -184 84 -75 1 -116 -2 -137 -12z m201 -441 c35 -126 64 -235 64 -242 0 -10 -33 -13 -140 -13 -116 0 -140 2 -140 15 0 12 111 421 125 463 13 37 33 -13 91 -223z" fill="#FF3D7F"/>
<path d="M2485 1436 c-69 -31 -71 -35 -205 -486 l-90 -305 0 -170 c0 -142 3 -176 18 -205 23 -46 80 -67 141 -50 64 17 75 43 80 182 l3 118 178 0 178 0 4 -113 c3 -62 10 -124 17 -138 37 -75 182 -70 211 7 6 14 10 102 10 196 l0 171 -81 276 c-45 152 -94 317 -110 366 -30 95 -58 134 -112 154 -40 15 -206 13 -242 -3z m202 -432 c34 -120 62 -229 62 -241 1 -23 0 -23 -139 -23 -89 0 -140 4 -140 10 0 9 71 269 116 428 9 31 21 51 27 49 7 -2 40 -102 74 -223z" fill="#FF3D7F"/>
</g>
</svg>